<svg id="Capa_1" data-name="Capa 1" xmlns="http://www.w3.org/2000/svg" viewBox="0 0 359.73 360.11"><defs><style>.cls-1{fill:#fff;}</style></defs><path class="cls-1" d="M299.91,479.25c5.92-3.33,11-7.22,16.76-9.21,14.2-4.93,21-15.43,23.57-29.27,1.82-9.67,3-19.46,4.44-29.19,1.93-12.81,6.12-15.71,18.85-13.27,15.16,2.92,24.27,12.51,29.06,26.61,4.65,13.69,4.9,27.91,4.22,42.18-.11,2.49-.25,5-.35,7.48a6.75,6.75,0,0,0,.31,1.43h4c17.47,0,34.94-.06,52.4,0,12.94.07,22.92,8.17,24.37,20.24a26.11,26.11,0,0,1-1.42,11c-3.14,9.45-6.7,18.76-10.26,28.06q-7.62,19.89-15.52,39.67a62.27,62.27,0,0,1-4.9,10,21.46,21.46,0,0,1-19.1,10.53q-53.71.06-107.42,0a24.7,24.7,0,0,1-16.34-6.18,19.94,19.94,0,0,1-14.42,6.17H271.86c-4.8,5.06-11,6.11-17.7,6.09-38.43-.11-76.86,0-115.28,0-13.85,0-20.94-7.12-20.94-21q0-48.47,0-97c0-12.77,7.13-20,19.89-20,38.93,0,77.86.12,116.78-.11,9.58-.06,16.81,2.87,20.85,11.95C284.06,476.4,293.22,473.42,299.91,479.25Zm57.37-69.56c-.46,3.06-.8,5.89-1.33,8.68-2.19,11.6-3.7,23.39-6.87,34.72-3.5,12.5-11.89,21.4-24.24,26.22-2.89,1.13-5.67,2.55-8.49,3.87-6.55,3.07-9.51,8-9.42,15.46.28,23.94.13,47.89.16,71.84,0,8.77,4.28,13.09,13.08,13.1,35.05,0,70.09,0,105.14.09,4.91,0,8.38-2,10.67-6.17a56,56,0,0,0,3-6.43c5.69-14.48,11.38-29,16.94-43.5,3.16-8.26,6.23-16.55,9-24.94,1.92-5.8-.18-10.79-5.36-13.13a18.23,18.23,0,0,0-7.2-1.49c-19.95-.11-39.91-.05-59.86-.06-6.85,0-8.51-1.92-8.39-8.76.22-11.22.88-22.48.09-33.63A75.14,75.14,0,0,0,379,424C375.39,414.84,367.83,410.26,357.28,409.69Zm-160,179.9v.06H256c6.32,0,8.4-2,8.41-8.22q0-48.85,0-97.69c0-6.19-2.07-8.27-8.37-8.27q-58.94,0-117.88,0c-6.29,0-8.2,2-8.2,8.38q0,48.66,0,97.31c0,6.5,1.95,8.42,8.53,8.42Zm79.58-102.05v96.09h9.28c6.86,0,8.68-1.8,8.69-8.6q0-39.48,0-79c0-.87,0-1.75-.06-2.62-.25-3.5-2.19-5.63-5.63-5.83C285.11,487.35,281,487.54,276.87,487.54Z" transform="translate(-117.93 -241.51)"/><path class="cls-1" d="M395.51,385.42H291.63c-27.19,0-54.38.06-81.58,0-18.11-.05-32.37-11.11-36.24-28.08a46.7,46.7,0,0,1-1-10q-.12-33.68,0-67.36c0-22.94,15.33-38.38,38.18-38.39q102.33-.06,204.67,0c19.28,0,33.95,12,37.26,30.17a39.7,39.7,0,0,1,.48,7.07q0,73.55,0,147.07c0,5.42-2.89,8.42-7.29,7.32a10.37,10.37,0,0,1-4.26-2.78q-22.15-21.5-44.22-43.09C397,386.7,396.32,386.14,395.51,385.42Zm45.87,27.82V409.3q0-65.31-.05-130.62c0-14.83-10.33-25.16-25.22-25.16q-102.92,0-205.83,0c-15,0-25.08,10-25.26,25.07-.1,8.35,0,16.71,0,25.07,0,14.85,0,29.7,0,44.54,0,10,3.91,17.95,12.92,22.28a34.44,34.44,0,0,0,14.41,2.92c59,.19,118,.27,177-.06,8.11,0,14,2,19.65,8C419.06,392.15,430,402.17,441.38,413.24Z" transform="translate(-117.93 -241.51)"/><path class="cls-1" d="M191.08,565.54a6,6,0,0,1-5.94-6,5.79,5.79,0,0,1,5.86-5.94,6,6,0,0,1,6.21,6.05A6.23,6.23,0,0,1,191.08,565.54Z" transform="translate(-117.93 -241.51)"/><path class="cls-1" d="M221.55,559.46a6.08,6.08,0,0,1-5.86,6.08,6.27,6.27,0,0,1-6.28-6.11,6,6,0,0,1,6.12-5.79A5.88,5.88,0,0,1,221.55,559.46Z" transform="translate(-117.93 -241.51)"/><path class="cls-1" d="M239.9,565.54a6,6,0,0,1-6-5.94,6,6,0,0,1,12,.07A6.1,6.1,0,0,1,239.9,565.54Z" transform="translate(-117.93 -241.51)"/><path class="cls-1" d="M296.68,286.26c3.56-5.62,6.93-11,10.36-16.36,3.78-5.9,8.63-5.85,12.45.12,3.43,5.35,6.82,10.72,10.28,16.19,6.55,1.48,13.11,2.91,19.63,4.47,7,1.69,8.38,6,3.64,11.29-4.23,4.74-8.51,9.44-13,14.43.53,5.77,1.09,11.71,1.61,17.66.76,8.64-2.84,11.24-11,8l-17.42-7-17.64,7.09c-7.75,3.12-11.3.69-10.74-7.48.41-6,1-11.91,1.59-18.2-4.23-4.69-8.57-9.46-12.88-14.28-4.91-5.5-3.57-9.76,3.63-11.45C283.64,289.17,290.08,287.76,296.68,286.26Zm.94,43.3c10.57-8.08,20.62-7.66,31.18-.33-.43-4.81-.63-8.38-1.1-11.91a9,9,0,0,1,2.59-8.16c2.69-2.7,5.12-5.67,8-8.88-3.9-.92-7.21-2-10.59-2.41a11.17,11.17,0,0,1-9-6.36c-1.53-2.89-3.47-5.56-5.46-8.69-2.13,3.35-4,6-5.56,8.82a10.9,10.9,0,0,1-8.69,6.19c-3.47.48-6.86,1.55-10.78,2.48,3,3.32,5.44,6.26,8.11,9a8.52,8.52,0,0,1,2.42,7.82C298.21,320.7,298.07,324.31,297.62,329.56Z" transform="translate(-117.93 -241.51)"/><path class="cls-1" d="M248.47,312.66c5.34,1.2,10.82,2.36,16.26,3.66,6.27,1.51,7.67,5.93,3.4,10.66-3.5,3.89-7.07,7.71-10.62,11.58.44,5.33,1,10.54,1.29,15.76.35,5.46-3.49,8.43-8.67,6.59-5.39-1.92-10.66-4.16-16.11-6.31-5.05,2-10.12,4-15.24,6-6.1,2.31-9.9-.41-9.55-6.81.14-2.49.47-5,.67-7.45s.38-5,.59-7.77c-3.48-3.8-7.12-7.72-10.7-11.7-4.11-4.56-2.7-9.09,3.28-10.49,5.45-1.27,10.92-2.44,16.47-3.68,2.66-4.14,5.27-8.22,7.9-12.3,4.08-6.32,8.93-6.39,13-.18C243.09,304.28,245.7,308.38,248.47,312.66Zm-14.51.23c-3.48,8.75-9.88,12.21-18.81,12.8,7.14,5.39,9.51,12.18,7.32,20.95,7.92-5.3,15.42-4.62,23.26-.19-2.67-8.83.21-15.34,7.14-20.77C243.92,325.09,237.45,321.54,234,312.89Z" transform="translate(-117.93 -241.51)"/><path class="cls-1" d="M378.13,312.68c2.89-4.49,5.67-8.91,8.57-13.27,3.34-5,8.34-5.05,11.74-.08,1.48,2.15,2.84,4.39,4.26,6.59s2.85,4.39,4.39,6.76c5.37,1.2,10.85,2.33,16.29,3.64,6.24,1.51,7.59,6,3.3,10.71-3.51,3.88-7.07,7.7-10.63,11.57.45,5.07,1,10,1.32,15,.43,6.61-3.44,9.35-9.72,7-5-1.91-10-3.93-15-6-4.94,2-9.9,4-14.88,5.9-6.5,2.51-10.31-.26-9.84-7.11.17-2.49.46-5,.66-7.45s.33-4.73.51-7.41c-3.49-3.81-7.14-7.73-10.71-11.71-4.08-4.55-2.63-9,3.38-10.44C367.17,315.09,372.65,313.91,378.13,312.68Zm-4.39,13.1c7.46,5.29,9.45,12.11,7.19,20.78,7.83-4.74,15.35-5,23.3,0-2.66-8.91.41-15.48,7.25-21-9.22-.27-15.35-4.36-19-12.89C389.22,321.62,382.83,325.12,373.74,325.78Z" transform="translate(-117.93 -241.51)"/></svg>