<svg id="Capa_1" data-name="Capa 1" xmlns="http://www.w3.org/2000/svg" viewBox="0 0 357.94 383.33"><defs><style>.cls-1{fill:#fff;}</style></defs><path class="cls-1" d="M290.87,577.92H163.57a5.94,5.94,0,0,0-1.32-.59c-26.69-4.88-43.57-25.06-43.57-52.21q0-139,0-278.08c0-30.21,22.27-52.41,52.51-52.43q56.15,0,112.3,0c30.32,0,52.32,22,52.4,52.44,0,13.1,0,26.2,0,39.3v4.11c7.1,0,13.58-.1,20.06,0,13.93.25,21.78,6.93,24.3,20.5a5.33,5.33,0,0,0,.49,1.11l5.2,2.79c23,12.24,44.7,26.34,63,45.13,11.35,11.66,20.49,24.74,25.12,40.61,4,13.82,2.44,27.74.58,41.57-2.81,20.87-6.09,41.68-9.14,62.52-.44,3-.71,6-1.07,9.25,1.3.07,2,.13,2.77.14,7.82.16,9.35,1.72,9.36,9.51,0,15.21-.09,30.44.06,45.65,0,3.9-1.13,6.77-4.53,8.67H365.75c-3.43-2.13-4.37-5.26-4.33-9.19q.19-21.88,0-43.78c0-5.27,0-10.21,6.92-11.23-6.55-15-12.88-29.4-19.31-44.07H335.89V474c0,18,.14,35.93-.06,53.89a50.44,50.44,0,0,1-36.69,47.92C296.41,576.63,293.63,577.23,290.87,577.92Zm6.71-108.3H182.74c-.11,2.61-.08,5-.36,7.31-.38,3.21-2.57,4.81-5.59,5.07s-5.69-1.05-6.56-4.31a20.78,20.78,0,0,1-.45-5.18q0-92.8,0-185.62a29,29,0,0,1,.1-3.73,6.48,6.48,0,0,1,6.52-6c3.36.1,5.88,2.62,6.12,6.32.14,2.2,0,4.42,0,6.68h115c0-15.32.16-30.39-.08-45.46-.11-6.6-5.42-11.4-12.27-11.78-3.47-.19-7,0-10.88,0-3.15,3.27-6.26,6.89-9.81,10a10.46,10.46,0,0,1-6.22,2.61q-30.87.28-61.75,0a11.14,11.14,0,0,1-6.56-2.71c-3.56-3.1-6.63-6.75-9.67-9.94h-7.69c-11,0-15.65,4.72-15.65,15.77q0,137.72,0,275.43c0,10.74,4.79,15.56,15.48,15.57H282.14a33.3,33.3,0,0,0,3.74-.09c6.59-.75,11.58-5.6,11.64-12.06C297.68,508.29,297.58,489.09,297.58,469.62ZM182.73,405.26H349.26c-1.22-14.83,4-25.78,18.66-31.09v-6c0-17.22.06-34.44,0-51.66,0-9.81-3.51-13.2-13.38-13.33H186.83c-1.32,0-2.63.11-4,.17v25.34H187q19.1,0,38.18,0c6.38,0,8.6,2.2,8.61,8.52q0,17,0,34.06c0,6.43-2.1,8.53-8.53,8.54-12.85,0-25.71,0-38.56,0-1.31,0-2.62.14-4,.22ZM451,514a15.45,15.45,0,0,0,.6-2c3.52-24.17,7.22-48.32,10.4-72.53a131,131,0,0,0,1.24-26.08c-1.1-15.71-9.34-28.45-19.48-39.94-17.25-19.56-38.75-33.53-61.4-45.9a8.14,8.14,0,0,0-1.54-.41v47c1.07.39,2.14.71,3.17,1.14,9.3,3.91,15.43,10.91,15.9,20.87.76,16.06.32,32.17.22,48.26,0,3.52-2.65,5.64-6.16,5.68-4.17.05-6.47-2.48-6.48-7.36q-.06-21.53,0-43c0-4.55-1.55-8.35-5.3-11a12.27,12.27,0,0,0-13.44-.9c-4.63,2.41-6.77,6.43-6.78,11.61,0,19.46-.16,38.93.11,58.38a42.2,42.2,0,0,0,2.52,14.56c5.47,14,11.61,27.7,17.55,41.68ZM323.13,290.27c0-14.63,0-28.85,0-43.07-.07-23.5-16.27-39.79-39.75-39.82q-56-.1-111.93,0c-23.56,0-40,16.5-40,40.1q0,138.86,0,277.72c0,23.55,16.49,39.95,40.1,40q55.77,0,111.55,0c23.64,0,40-16.36,40-40,0-17.34,0-34.68,0-52,0-1.2-.12-2.4-.17-3.49H310.36c0,18.77,0,37.22,0,55.68,0,16.24-10.75,27-26.93,27.07q-56.15.06-112.3,0a31.83,31.83,0,0,1-8.84-1.24c-11.4-3.36-18.06-13.16-18.06-26.26q0-138.5,0-277c0-.87,0-1.75,0-2.62.53-12.84,9.12-22.87,21.84-24.66a92.23,92.23,0,0,1,16.79-.32c1.75.08,3.72,1.42,5.09,2.71,3.45,3.22,6.62,6.74,9.5,9.73h59.71c.89-1,1.75-2,2.74-3,12-11.63,6.36-9.5,23.66-9.57,16-.07,26.73,10.79,26.78,26.79,0,13.09,0,26.19,0,39.29v4Zm51.26,274.59h89.19V527.14H374.39Zm-25.31-146.3H182.83v12.2H349.08Zm-166.23,37.7H349V444H182.85Zm37.84-89.39V341.68H182.84v25.19Z" transform="translate(-118.67 -194.59)"/><path class="cls-1" d="M227.58,520.36c-4.24,0-8.48.07-12.72,0s-6.49-2.31-6.61-6.06c-.12-3.91,2.27-6.56,6.47-6.62q12.54-.2,25.08,0c4.14.06,6.78,2.79,6.7,6.5s-2.65,6.12-6.94,6.2C235.57,520.42,231.58,520.36,227.58,520.36Z" transform="translate(-118.67 -194.59)"/><path class="cls-1" d="M271.79,520.34c-2.11,0-4.23.1-6.34,0a6,6,0,0,1-6-5.88c-.2-3.35,1.86-6.38,5.22-6.6a110.28,110.28,0,0,1,14.88,0c3.16.22,5.23,3.22,5.15,6.34a6.57,6.57,0,0,1-6.57,6.17h-6.34Z" transform="translate(-118.67 -194.59)"/><path class="cls-1" d="M182.42,520.34c-2.11,0-4.23.1-6.33,0-3.72-.21-6-2.61-6-6.2s2.14-6.22,5.84-6.41a130.2,130.2,0,0,1,13.4,0c3.71.19,5.87,2.8,5.84,6.4s-2.27,6-6,6.21C186.89,520.44,184.65,520.34,182.42,520.34Z" transform="translate(-118.67 -194.59)"/><path class="cls-1" d="M399.77,545.91a6.32,6.32,0,1,1-12.63,0,6.32,6.32,0,0,1,12.63,0Z" transform="translate(-118.67 -194.59)"/></svg>