<svg width="241" height="64" viewBox="0 0 241 64" fill="none" xmlns="http://www.w3.org/2000/svg">
<rect width="241" height="64" rx="32" fill="black"/>
<path d="M54.504 42L55.856 37.032C54.9652 35.5049 54.4971 33.768 54.5 32C54.5 26.477 58.977 22 64.5 22C70.023 22 74.5 26.477 74.5 32C74.5 37.523 70.023 42 64.5 42C62.7328 42.0029 60.9967 41.5352 59.47 40.645L54.504 42ZM60.891 27.308C60.7619 27.316 60.6357 27.35 60.52 27.408C60.4115 27.4694 60.3125 27.5462 60.226 27.636C60.106 27.749 60.038 27.847 59.965 27.942C59.5954 28.423 59.3966 29.0134 59.4 29.62C59.402 30.11 59.53 30.587 59.73 31.033C60.139 31.935 60.812 32.89 61.701 33.775C61.915 33.988 62.124 34.202 62.349 34.401C63.4524 35.3725 64.7673 36.073 66.189 36.447L66.758 36.534C66.943 36.544 67.128 36.53 67.314 36.521C67.6053 36.506 67.8896 36.4271 68.147 36.29C68.278 36.2225 68.4058 36.1491 68.53 36.07C68.53 36.07 68.573 36.042 68.655 35.98C68.79 35.88 68.873 35.809 68.985 35.692C69.068 35.606 69.14 35.505 69.195 35.39C69.273 35.227 69.351 34.916 69.383 34.657C69.407 34.459 69.4 34.351 69.397 34.284C69.393 34.177 69.304 34.066 69.207 34.019L68.625 33.758C68.625 33.758 67.755 33.379 67.224 33.137C67.168 33.1126 67.108 33.0987 67.047 33.096C66.9786 33.089 66.9095 33.0967 66.8443 33.1186C66.7791 33.1405 66.7193 33.1761 66.669 33.223V33.221C66.664 33.221 66.597 33.278 65.874 34.154C65.8325 34.2098 65.7754 34.2519 65.7098 34.2751C65.6443 34.2982 65.5733 34.3013 65.506 34.284C65.4409 34.2666 65.377 34.2445 65.315 34.218C65.191 34.166 65.148 34.146 65.063 34.109L65.058 34.107C64.4859 33.8572 63.9562 33.5198 63.488 33.107C63.362 32.997 63.245 32.877 63.125 32.761C62.7316 32.3842 62.3887 31.958 62.105 31.493L62.046 31.398C62.0036 31.3342 61.9694 31.2653 61.944 31.193C61.906 31.046 62.005 30.928 62.005 30.928C62.005 30.928 62.248 30.662 62.361 30.518C62.4551 30.3983 62.5429 30.2738 62.624 30.145C62.742 29.955 62.779 29.76 62.717 29.609C62.437 28.925 62.147 28.244 61.849 27.568C61.79 27.434 61.615 27.338 61.456 27.319C61.402 27.313 61.348 27.307 61.294 27.303C61.1597 27.2963 61.0251 27.2977 60.891 27.307V27.308Z" fill="white"/>
<path d="M87.028 32.368C87.028 31.2587 87.268 30.272 87.748 29.408C88.228 28.5333 88.8947 27.856 89.748 27.376C90.612 26.8853 91.588 26.64 92.676 26.64C94.0093 26.64 95.1507 26.992 96.1 27.696C97.0493 28.4 97.684 29.36 98.004 30.576H94.996C94.772 30.1067 94.452 29.7493 94.036 29.504C93.6307 29.2587 93.1667 29.136 92.644 29.136C91.8013 29.136 91.1187 29.4293 90.596 30.016C90.0733 30.6027 89.812 31.3867 89.812 32.368C89.812 33.3493 90.0733 34.1333 90.596 34.72C91.1187 35.3067 91.8013 35.6 92.644 35.6C93.1667 35.6 93.6307 35.4773 94.036 35.232C94.452 34.9867 94.772 34.6293 94.996 34.16H98.004C97.684 35.376 97.0493 36.336 96.1 37.04C95.1507 37.7333 94.0093 38.08 92.676 38.08C91.588 38.08 90.612 37.84 89.748 37.36C88.8947 36.8693 88.228 36.192 87.748 35.328C87.268 34.464 87.028 33.4773 87.028 32.368ZM104.992 38.112C103.936 38.112 102.965 37.8667 102.08 37.376C101.205 36.8853 100.506 36.2027 99.9835 35.328C99.4715 34.4427 99.2155 33.4507 99.2155 32.352C99.2155 31.2533 99.4715 30.2667 99.9835 29.392C100.506 28.5173 101.205 27.8347 102.08 27.344C102.965 26.8533 103.936 26.608 104.992 26.608C106.048 26.608 107.013 26.8533 107.888 27.344C108.773 27.8347 109.466 28.5173 109.968 29.392C110.48 30.2667 110.736 31.2533 110.736 32.352C110.736 33.4507 110.48 34.4427 109.968 35.328C109.456 36.2027 108.762 36.8853 107.888 37.376C107.013 37.8667 106.048 38.112 104.992 38.112ZM104.992 35.616C105.888 35.616 106.602 35.3173 107.135 34.72C107.68 34.1227 107.952 33.3333 107.952 32.352C107.952 31.36 107.68 30.5707 107.135 29.984C106.602 29.3867 105.888 29.088 104.992 29.088C104.085 29.088 103.36 29.3813 102.816 29.968C102.282 30.5547 102.016 31.3493 102.016 32.352C102.016 33.344 102.282 34.1387 102.816 34.736C103.36 35.3227 104.085 35.616 104.992 35.616ZM122.306 38H119.57L114.994 31.072V38H112.258V26.768H114.994L119.57 33.728V26.768H122.306V38ZM132.369 26.768V28.96H129.393V38H126.657V28.96H123.681V26.768H132.369ZM140.734 36.016H136.542L135.87 38H133.006L137.07 26.768H140.238L144.302 38H141.406L140.734 36.016ZM140.03 33.904L138.638 29.792L137.262 33.904H140.03ZM145.075 32.368C145.075 31.2587 145.315 30.272 145.795 29.408C146.275 28.5333 146.942 27.856 147.795 27.376C148.659 26.8853 149.635 26.64 150.723 26.64C152.056 26.64 153.198 26.992 154.147 27.696C155.096 28.4 155.731 29.36 156.051 30.576H153.043C152.819 30.1067 152.499 29.7493 152.083 29.504C151.678 29.2587 151.214 29.136 150.691 29.136C149.848 29.136 149.166 29.4293 148.643 30.016C148.12 30.6027 147.859 31.3867 147.859 32.368C147.859 33.3493 148.12 34.1333 148.643 34.72C149.166 35.3067 149.848 35.6 150.691 35.6C151.214 35.6 151.678 35.4773 152.083 35.232C152.499 34.9867 152.819 34.6293 153.043 34.16H156.051C155.731 35.376 155.096 36.336 154.147 37.04C153.198 37.7333 152.056 38.08 150.723 38.08C149.635 38.08 148.659 37.84 147.795 37.36C146.942 36.8693 146.275 36.192 145.795 35.328C145.315 34.464 145.075 33.4773 145.075 32.368ZM165.806 26.768V28.96H162.83V38H160.094V28.96H157.118V26.768H165.806ZM174.172 36.016H169.98L169.308 38H166.444L170.508 26.768H173.676L177.74 38H174.844L174.172 36.016ZM173.468 33.904L172.076 29.792L170.7 33.904H173.468ZM184.704 38L182.368 33.76H181.712V38H178.976V26.768H183.568C184.454 26.768 185.206 26.9227 185.824 27.232C186.454 27.5413 186.923 27.968 187.232 28.512C187.542 29.0453 187.696 29.6427 187.696 30.304C187.696 31.0507 187.483 31.7173 187.056 32.304C186.64 32.8907 186.022 33.3067 185.2 33.552L187.792 38H184.704ZM181.712 31.824H183.408C183.91 31.824 184.283 31.7013 184.528 31.456C184.784 31.2107 184.912 30.864 184.912 30.416C184.912 29.9893 184.784 29.6533 184.528 29.408C184.283 29.1627 183.91 29.04 183.408 29.04H181.712V31.824Z" fill="white"/>
</svg>
