<svg width="25" height="24" viewBox="0 0 25 24" fill="none" xmlns="http://www.w3.org/2000/svg">
<path d="M2.50401 22L3.85601 17.032C2.96515 15.5049 2.49711 13.768 2.50001 12C2.50001 6.477 6.97701 2 12.5 2C18.023 2 22.5 6.477 22.5 12C22.5 17.523 18.023 22 12.5 22C10.7328 22.0029 8.99667 21.5352 7.47001 20.645L2.50401 22ZM8.89101 7.308C8.76188 7.31602 8.63569 7.35003 8.52001 7.408C8.41153 7.46943 8.31251 7.54622 8.22601 7.636C8.10601 7.749 8.03801 7.847 7.96501 7.942C7.59542 8.423 7.39662 9.01342 7.40001 9.62C7.40201 10.11 7.53001 10.587 7.73001 11.033C8.13901 11.935 8.81201 12.89 9.70101 13.775C9.91501 13.988 10.124 14.202 10.349 14.401C11.4524 15.3725 12.7673 16.073 14.189 16.447L14.758 16.534C14.943 16.544 15.128 16.53 15.314 16.521C15.6053 16.506 15.8896 16.4271 16.147 16.29C16.278 16.2225 16.4058 16.1491 16.53 16.07C16.53 16.07 16.573 16.042 16.655 15.98C16.79 15.88 16.873 15.809 16.985 15.692C17.068 15.606 17.14 15.505 17.195 15.39C17.273 15.227 17.351 14.916 17.383 14.657C17.407 14.459 17.4 14.351 17.397 14.284C17.393 14.177 17.304 14.066 17.207 14.019L16.625 13.758C16.625 13.758 15.755 13.379 15.224 13.137C15.168 13.1126 15.108 13.0987 15.047 13.096C14.9786 13.089 14.9095 13.0967 14.8443 13.1186C14.7791 13.1405 14.7193 13.1761 14.669 13.223V13.221C14.664 13.221 14.597 13.278 13.874 14.154C13.8325 14.2098 13.7754 14.2519 13.7098 14.2751C13.6443 14.2982 13.5733 14.3013 13.506 14.284C13.4409 14.2666 13.377 14.2445 13.315 14.218C13.191 14.166 13.148 14.146 13.063 14.109L13.058 14.107C12.4859 13.8572 11.9562 13.5198 11.488 13.107C11.362 12.997 11.245 12.877 11.125 12.761C10.7316 12.3842 10.3887 11.958 10.105 11.493L10.046 11.398C10.0036 11.3342 9.96937 11.2653 9.94401 11.193C9.90601 11.046 10.005 10.928 10.005 10.928C10.005 10.928 10.248 10.662 10.361 10.518C10.4551 10.3983 10.5429 10.2738 10.624 10.145C10.742 9.955 10.779 9.76 10.717 9.609C10.437 8.925 10.147 8.244 9.84901 7.568C9.79001 7.434 9.61501 7.338 9.45601 7.319C9.40201 7.313 9.34801 7.307 9.29401 7.303C9.15972 7.29633 9.02515 7.29766 8.89101 7.307V7.308Z" fill="white"/>
</svg>
