<svg id="Capa_1" data-name="Capa 1" xmlns="http://www.w3.org/2000/svg" viewBox="0 0 359.36 239.47"><defs><style>.cls-1{fill:#000;}</style></defs><path class="cls-1" d="M438.46,516.77c-16,31.47-59.47,32.23-76.14.13H258.88c-16.4,31.75-59.73,31.7-76.14-.13H159c-8.86,0-17.71,0-26.57,0-5.34,0-7.42-2.14-7.45-7.52q0-10.29,0-20.58c0-5.86,2-7.79,7.88-7.82H137q0-79.59,0-158.69c0-14.08,6.81-20.94,20.8-20.94H332.14c13.28,0,20.38,7.05,20.39,20.25,0,7.08,0,14.16,0,21.67h4.28c23.7,0,47.4.09,71.1-.08,4.32,0,6.88,1.57,9,5.18C447.84,366.68,459,385,469.86,403.46a17.51,17.51,0,0,1,2.33,8.38c.19,21.45.11,42.9.11,64.36v4.65c2.11,0,4.05-.09,6,0,3.57.21,5.88,2.36,5.94,5.94q.19,12,0,23.94c-.07,3.92-2.64,6-7,6-11.48,0-23,0-34.43,0ZM286.66,313.2v4.49q0,35.93,0,71.85c0,2.81-.57,5.19-3.19,6.67s-5,.64-7.31-.95c-2.66-1.84-5.38-3.62-8.07-5.42l-23.34-15.56c-10.49,7-20.78,13.76-31,20.63-2.52,1.7-5,2.91-7.95,1.21s-3-4.25-3-7.12q.06-35.75,0-71.48v-4.33H158c-7.45,0-9,1.55-9,8.92V471.8c0,1,0,2,0,3,.26,3.58,2.36,5.94,5.9,6,9.35.13,18.69.05,27.9.05,16.6-31.95,60-31.65,76.22,0H331.8c7.08,0,8.75-1.69,8.75-8.84q0-57.83,0-115.64c0-12,0-24,0-35.93,0-4.64-2.06-7.16-6.22-7.18C318.61,313.14,302.91,313.2,286.66,313.2Zm65.68,42V480.69h10.15c19.19-32,54.24-31.95,76-.09H460a4.16,4.16,0,0,0,.28-.92c0-22.45.07-44.9,0-67.35a8.82,8.82,0,0,0-1.45-4.1c-6.16-10.4-12.4-20.75-18.61-31.11L427,355.18ZM215.1,313.35V379.6c8.71-5.81,17-11.28,25.26-16.87,2.94-2,5.7-2.18,8.62-.09,1.51,1.09,3.11,2.07,4.66,3.1l20.82,13.87V313.35ZM400.55,468.9A29.93,29.93,0,1,0,430.37,499,30,30,0,0,0,400.55,468.9ZM250.73,499.08a29.94,29.94,0,1,0-30.29,29.68A30,30,0,0,0,250.73,499.08ZM358.6,493H262.78v11.52H358.6ZM137.05,504.59h41.83V493.12H137.05ZM472.12,493H442.29v11.49h29.83Z" transform="translate(-124.96 -301.21)"/><path class="cls-1" d="M406.05,421c-11.34,0-22.68,0-34,0-5.42,0-7.5-2.06-7.51-7.42q0-19.62,0-39.25c0-5.09,2.19-7.22,7.33-7.23,15.08,0,30.16,0,45.23-.05a7.56,7.56,0,0,1,7.24,4.27c7.47,13.21,15.05,26.37,22.52,39.59,3.27,5.8.7,10.06-6,10.09C429.23,421,417.64,421,406.05,421ZM432,408.93l-16.92-29.61H376.8v29.61Z" transform="translate(-124.96 -301.21)"/><path class="cls-1" d="M418.39,498.74a18,18,0,1,1-18.26-17.86A18,18,0,0,1,418.39,498.74Zm-17.81-5.86a6,6,0,0,0-.33,11.9,6,6,0,1,0,.33-11.9Z" transform="translate(-124.96 -301.21)"/><path class="cls-1" d="M238.75,498.76a18,18,0,1,1-18.23-17.88A18,18,0,0,1,238.75,498.76Zm-18.09,6a6,6,0,1,0-5.83-6A6,6,0,0,0,220.66,504.78Z" transform="translate(-124.96 -301.21)"/></svg>